<svg id="Layer_1" data-name="Layer 1" xmlns="http://www.w3.org/2000/svg" viewBox="0 0 95.31 95.31"><defs><style>.cls-1{fill:#d04747;}</style></defs><path class="cls-1" d="M71.84,91.91a5.24,5.24,0,0,1,6.84-2.29A4.54,4.54,0,0,1,80.4,90.9V85.43h2.36v15.21H80.4V98.93a4.48,4.48,0,0,1-1.6,1.36,4.85,4.85,0,0,1-2.33.53,5.09,5.09,0,0,1-2.7-.75A5.27,5.27,0,0,1,71.84,98a6.5,6.5,0,0,1-.71-3A6.27,6.27,0,0,1,71.84,91.91Zm8.08,1a3.48,3.48,0,0,0-1.27-1.31,3.41,3.41,0,0,0-3.37,0A3.26,3.26,0,0,0,74,92.9a4.09,4.09,0,0,0-.49,2A4.23,4.23,0,0,0,74,97a3.32,3.32,0,0,0,3,1.81,3.22,3.22,0,0,0,1.68-.46A3.44,3.44,0,0,0,79.92,97a4.57,4.57,0,0,0,0-4.08Zm16.49,2.92H87.75a3.12,3.12,0,0,0,3.23,3,2.74,2.74,0,0,0,2.67-1.58h2.53a5.1,5.1,0,0,1-1.86,2.56,5.49,5.49,0,0,1-3.34,1,5.87,5.87,0,0,1-2.91-.73,5.24,5.24,0,0,1-2-2.06A6.22,6.22,0,0,1,85.33,95,6.44,6.44,0,0,1,86,91.9a5,5,0,0,1,2-2.05,5.94,5.94,0,0,1,3-.72,5.85,5.85,0,0,1,2.86.7,5,5,0,0,1,2,2,6,6,0,0,1,.7,2.9A7.88,7.88,0,0,1,96.41,95.85ZM94,94a2.65,2.65,0,0,0-.92-2.07,3.28,3.28,0,0,0-2.24-.79,3,3,0,0,0-2.08.77,3.27,3.27,0,0,0-1,2.09ZM76.9,110.06H74.8v9.42H72.44v-9.42H71.11v-1.91h1.33v-.8a3.55,3.55,0,0,1,1-2.84,4.89,4.89,0,0,1,3.25-.9v2a2.19,2.19,0,0,0-1.5.41,1.85,1.85,0,0,0-.43,1.38v.8h2.1v1.91Zm4.47,8.87a5.26,5.26,0,0,1-2-2.05,6.16,6.16,0,0,1-.74-3.08,6,6,0,0,1,.76-3.06,5.23,5.23,0,0,1,2.07-2,6.36,6.36,0,0,1,5.88,0,5.17,5.17,0,0,1,2.07,2,6.45,6.45,0,0,1,0,6.13,5.47,5.47,0,0,1-2.13,2.06,6.11,6.11,0,0,1-3,.73A5.76,5.76,0,0,1,81.37,118.93ZM86,117.19a3.2,3.2,0,0,0,1.29-1.29,4.16,4.16,0,0,0,.49-2.1,4.29,4.29,0,0,0-.47-2.08A3.17,3.17,0,0,0,86,110.44a3.43,3.43,0,0,0-3.36,0,3,3,0,0,0-1.22,1.28A4.41,4.41,0,0,0,81,113.8a4,4,0,0,0,.94,2.83,3.05,3.05,0,0,0,2.35,1A3.44,3.44,0,0,0,86,117.19Zm10.85-8.74a4.05,4.05,0,0,1,2-.48v2.42h-.59a2.88,2.88,0,0,0-2.09.7,3.38,3.38,0,0,0-.71,2.43v6H93.1V108.16h2.34v1.64A3.69,3.69,0,0,1,96.81,108.45Zm20.7.07a4,4,0,0,1,1.67,1.65,5.38,5.38,0,0,1,.6,2.63v6.68h-2.32v-6.33a3.27,3.27,0,0,0-.76-2.33,3,3,0,0,0-4.16,0,3.21,3.21,0,0,0-.77,2.33v6.33h-2.33v-6.33a3.31,3.31,0,0,0-.75-2.33,2.73,2.73,0,0,0-2.08-.82,2.76,2.76,0,0,0-2.09.82,3.26,3.26,0,0,0-.77,2.33v6.33h-2.34V108.16h2.34v1.29a4,4,0,0,1,1.46-1.09,4.63,4.63,0,0,1,1.89-.39,5,5,0,0,1,2.43.58,3.87,3.87,0,0,1,1.64,1.66,3.81,3.81,0,0,1,1.6-1.63,4.71,4.71,0,0,1,2.35-.61A5,5,0,0,1,117.51,108.52Z" transform="translate(-33.54 -33.24)"/><path class="cls-1" d="M119.78,98.46v2.18H98.91V98.46Zm6.85,2.18v25.69H35.77V35.47H71.11V33.24H33.54v95.31h95.31V100.64Z" transform="translate(-33.54 -33.24)"/></svg>